<svg width="1047" height="120" viewBox="0 0 1047 120" fill="none" xmlns="http://www.w3.org/2000/svg">
<mask id="mask0_247_990" style="mask-type:luminance" maskUnits="userSpaceOnUse" x="874" y="0" width="173" height="120">
<path d="M874.486 0H1046.49V120H874.486V0Z" fill="white"/>
</mask>
<g mask="url(#mask0_247_990)">
<path d="M960.596 119.891C949.174 119.891 937.148 119.797 926.742 119.63C924.955 119.599 923.533 118.125 923.559 116.339C923.59 114.547 925.075 113.13 926.846 113.151C937.221 113.318 949.205 113.411 960.596 113.411C980.669 113.411 1006.4 113.104 1016.76 112.51C1026.2 111.875 1029.73 110.625 1033.41 104.083C1033.42 104.063 1033.44 104.042 1033.45 104.026C1035.48 100.599 1036.99 95.9531 1038.06 89.8177C1038.06 89.8125 1038.06 89.8125 1038.06 89.8073C1039.38 82.2656 1040.02 72.5313 1040.02 60.0469V59.9635C1040.02 37.5313 1037.93 23.526 1033.44 15.8854C1033.43 15.8698 1033.42 15.849 1033.41 15.8333C1029.7 9.25 1026.18 8.03125 1016.79 7.5C1016.78 7.5 1016.76 7.5 1016.75 7.5C1006.49 6.80729 980.106 6.55729 960.627 6.55729C940.127 6.55729 921.471 6.79167 910.715 7.1875C908.179 7.28125 906.07 7.38021 904.45 7.48958C894.934 8.03646 891.382 9.26042 887.643 15.8438C887.637 15.8542 887.632 15.8646 887.627 15.8698C883.075 23.7031 880.955 37.7083 880.955 59.9531V60.0365C880.955 82.3073 883.075 96.2865 887.622 104.021C887.627 104.036 887.637 104.052 887.643 104.063C888.731 105.974 889.825 107.438 890.986 108.531C892.288 109.755 892.356 111.807 891.132 113.109C889.908 114.411 887.861 114.479 886.559 113.255C884.924 111.714 883.445 109.766 882.033 107.292C876.887 98.5104 874.486 83.4948 874.486 60.0365V59.9531C874.486 36.2083 876.814 21.6094 882.033 12.625C887.2 3.54167 893.252 1.64583 904.054 1.02083C905.705 0.911459 907.877 0.807292 910.476 0.713542C910.481 0.713542 910.481 0.713542 910.481 0.713542C921.309 0.31771 940.054 0.078125 960.627 0.078125C981.132 0.078125 1006.75 0.333333 1017.17 1.03646C1027.89 1.64063 1033.9 3.53125 1039.03 12.625C1044.19 21.4219 1046.49 36.026 1046.49 59.9635V60.0469C1046.49 72.9063 1045.81 83.0104 1044.43 90.9271C1044.43 90.9323 1044.43 90.9323 1044.43 90.9323C1043.22 97.8385 1041.46 103.193 1039.03 107.302C1033.93 116.318 1027.92 118.25 1017.18 118.974C1017.17 118.974 1017.16 118.979 1017.15 118.979C1006.67 119.578 980.768 119.891 960.596 119.891ZM907.393 119.13C907.346 119.13 907.299 119.13 907.252 119.125L906.929 119.115C905.143 119.036 903.757 117.526 903.835 115.74C903.913 113.948 905.419 112.563 907.205 112.641L907.523 112.656C909.309 112.729 910.695 114.24 910.617 116.026C910.544 117.766 909.111 119.13 907.393 119.13ZM939.799 94.1354C939.247 94.1354 938.695 93.9948 938.2 93.7135C937.189 93.1354 936.564 92.0573 936.564 90.8958V29.0781C936.564 27.9115 937.189 26.8333 938.2 26.2604C939.21 25.6823 940.455 25.6979 941.455 26.2969L993.106 57.2031C994.085 57.7865 994.684 58.8438 994.684 59.9844C994.684 61.125 994.085 62.1823 993.106 62.7656L941.455 93.6771C940.945 93.9792 940.372 94.1354 939.799 94.1354ZM943.028 34.7865V85.1875L985.143 59.9844L943.028 34.7865Z" fill="#FE5152"/>
</g>
<path d="M0 100.479V16.6035H114.542V32.0618H15.4583V46.3327H90.4583V61.7702H15.4583V100.479H0Z" fill="#5271FF"/>
<path d="M174.19 42.7272C174.19 46.4095 173.909 50.0085 173.357 53.5189C172.799 57.0345 171.659 60.1855 169.94 62.9772C168.216 65.7689 165.68 67.9251 162.336 69.4355L174.065 100.477H157.544L146.628 71.4772H144.482V100.477H129.023V16.498H152.148C166.841 16.498 174.19 25.2428 174.19 42.7272ZM150.836 56.623C151.878 56.623 153.013 56.1855 154.253 55.3105C155.487 54.4355 156.544 53.0397 157.419 51.123C158.294 49.2064 158.732 46.6126 158.732 43.3314C158.732 38.9303 157.815 35.8522 155.982 34.1022C154.148 32.3418 152.232 31.4564 150.232 31.4564H144.482V56.623H150.836Z" fill="#5271FF"/>
<path d="M228.233 32.0605H204.025V46.9147H221.046V62.373H204.025V85.0189H228.233V100.477H188.566V16.498H228.233V32.0605Z" fill="#5271FF"/>
<path d="M282.264 32.0605H258.056V46.9147H275.077V62.373H258.056V85.0189H282.264V100.477H242.598V16.498H282.264V32.0605Z" fill="#5271FF"/>
<path d="M398.23 85.0202C406.533 85.0202 414.382 84.041 421.772 82.0827C429.158 80.1244 435.408 77.39 440.522 73.8744L449.272 86.4577C442.882 90.9316 435.23 94.39 426.314 96.8327C417.408 99.265 408.048 100.479 398.23 100.479C388.73 100.479 379.861 99.4056 371.626 97.2494C363.402 95.0827 356.194 92.1035 350.001 88.3119C343.803 84.5202 338.97 80.0931 335.501 75.0202C332.027 69.9525 330.293 64.4577 330.293 58.541C330.293 52.64 332.027 47.1556 335.501 42.0827C338.97 36.9993 343.803 32.5618 350.001 28.7702C356.194 24.9785 363.402 22.0098 371.626 19.8535C379.861 17.6868 388.73 16.6035 398.23 16.6035C408.048 16.6035 417.408 17.8275 426.314 20.2702C435.23 22.7025 442.882 26.1139 449.272 30.4993L440.397 43.2077C435.283 39.6139 429.053 36.8535 421.71 34.9368C414.361 33.0202 406.533 32.0618 398.23 32.0618C391.991 32.0618 385.777 32.7025 379.585 33.9785C373.402 35.2598 367.757 37.0775 362.647 39.4368C357.533 41.8014 353.439 44.5983 350.355 47.8327C347.283 51.0566 345.751 54.6244 345.751 58.541C345.751 62.4577 347.283 66.0358 350.355 69.2702C353.439 72.5098 357.533 75.3066 362.647 77.666C367.757 80.015 373.402 81.8275 379.585 83.1035C385.777 84.3848 391.991 85.0202 398.23 85.0202Z" fill="#5271FF"/>
<path d="M508.917 42.7272C508.917 46.4095 508.635 50.0085 508.083 53.5189C507.526 57.0345 506.385 60.1855 504.667 62.9772C502.943 65.7689 500.406 67.9251 497.063 69.4355L508.792 100.477H492.271L481.354 71.4772H479.208V100.477H463.75V16.498H486.875C501.568 16.498 508.917 25.2428 508.917 42.7272ZM485.563 56.623C486.604 56.623 487.74 56.1855 488.979 55.3105C490.214 54.4355 491.271 53.0397 492.146 51.123C493.021 49.2064 493.458 46.6126 493.458 43.3314C493.458 38.9303 492.542 35.8522 490.708 34.1022C488.875 32.3418 486.958 31.4564 484.958 31.4564H479.208V56.623H485.563Z" fill="#5271FF"/>
<path d="M562.96 32.0605H538.751V46.9147H555.772V62.373H538.751V85.0189H562.96V100.477H523.293V16.498H562.96V32.0605Z" fill="#5271FF"/>
<path d="M612.904 100.477L609.32 83.8314H596.487L593.133 100.477H577.32L594.341 16.498H610.758L628.716 100.477H612.904ZM599.612 68.373H606.07L602.716 52.9147L599.612 68.373Z" fill="#5271FF"/>
<path d="M679.279 16.498V31.9355H668.863V100.477H653.508V31.9355H643.092V16.498H679.279Z" fill="#5271FF"/>
<path d="M709.107 100.479H693.648V16.6035H709.107V100.479Z" fill="#5271FF"/>
<path d="M756.541 16.498H772.124L761.583 100.477H734.27L723.479 16.498H739.062L747.916 85.2689L756.541 16.498Z" fill="#5271FF"/>
<path d="M826.161 32.0605H801.952V46.9147H818.973V62.373H801.952V85.0189H826.161V100.477H786.494V16.498H826.161V32.0605Z" fill="#5271FF"/>
</svg>
